<svg width="859" height="841" viewBox="0 0 859 841" fill="none" xmlns="http://www.w3.org/2000/svg">
<path d="M255.509 21.2997C253.621 23.5912 252.75 28.1313 255.39 34.2274C273.143 75.2239 274.088 105.916 270.034 124.435C269.509 126.834 268.444 128.94 266.978 130.708L209.704 199.949L209.703 199.948C209.7 199.951 209.699 199.954 209.697 199.957L201.998 193.576L202.003 193.568C202.477 192.998 202.815 192.339 202.99 191.538L203.152 190.775C206.487 174.584 205.774 146.323 188.938 107.442C185.389 99.2473 185.432 90.3503 190.517 84.1805L190.523 84.1737L247.798 14.9335L255.509 21.2997Z" fill="#FF743D" stroke="#AA1300" stroke-width="10"/>
<path fill-rule="evenodd" clip-rule="evenodd" d="M251.651 18.12C253.716 15.614 256.845 13.9807 260.928 13.6484L304.998 10.062C315.804 9.18257 328.803 17.7691 334.428 28.9115C348.536 56.8584 370.355 92.8014 393.141 111.934C396.791 114.999 401.119 116.752 405.264 117.54C435.917 123.366 466.871 133.737 496.992 147.924C502.582 150.557 508.387 151.559 512.584 149.71C524.291 144.557 535.081 134.707 544.133 123.768L486.857 193.009C477.806 203.948 467.015 213.798 455.309 218.951C451.111 220.799 445.307 219.797 439.717 217.164C409.595 202.978 378.642 192.607 347.989 186.781C343.844 185.993 339.515 184.239 335.866 181.175C313.08 162.042 291.26 126.099 277.152 98.1523C271.527 87.0099 258.529 78.4234 247.723 79.3028L203.652 82.8893C199.569 83.2215 196.441 84.8548 194.375 87.3608L251.651 18.12Z" fill="#FF743D"/>
<path d="M562.959 105.897C562.802 106.086 562.654 106.286 562.515 106.497L562.378 106.712C558.325 113.325 553.474 120.323 547.985 126.956L547.984 126.955L490.785 196.105C490.76 196.135 490.735 196.167 490.71 196.197L486.857 193.01L483.005 189.822L483.006 189.821C488.149 183.606 492.73 177.004 496.576 170.728C496.998 170.04 497.463 169.388 497.969 168.774L497.974 168.769L555.249 99.5284L562.959 105.897Z" fill="#FF743D" stroke="#AA1300" stroke-width="10"/>
<path d="M571.075 92.8185C577.126 92.8831 583.635 95.0436 589.573 99.1369L635.086 130.517C641.522 134.954 646.26 140.951 648.809 147.224C651.332 153.435 651.868 160.389 649.036 166.307C634.982 195.685 636.869 224.714 642.125 243.987C642.861 246.684 644.711 249.717 647.451 252.68L649.109 254.483C657.376 263.516 665.29 272.859 672.801 282.48C675.181 285.528 678.07 288.126 681.23 289.8L682.2 290.309C702.792 301.02 737.061 312.79 777.339 311.145H777.34C784.15 310.867 791.293 313.189 797.374 316.992C803.476 320.809 808.907 326.362 812.059 333.046L833.553 378.628C837.376 386.736 837.131 395.236 832.167 401.25L832.164 401.254L774.889 470.495L767.18 464.125C769.013 461.904 769.903 457.796 767.233 452.134L745.739 406.553C743.537 401.884 739.558 397.69 734.796 394.711C730.163 391.813 725.159 390.295 720.883 390.365L720.472 390.377C678.096 392.108 642.1 379.757 620.301 368.417L619.274 367.878C614.907 365.565 611.187 362.23 608.226 358.604L607.644 357.874C599.807 347.836 591.517 338.101 582.832 328.709V328.708C579.436 325.035 576.501 320.625 575.201 315.858C569.484 294.893 567.401 263.295 582.741 231.232C584.012 228.573 584.076 224.677 582.269 220.229C580.487 215.842 577.035 211.369 572.135 207.99L526.62 176.611C522.089 173.486 517.486 172.099 513.692 172.059C509.889 172.018 507.203 173.295 505.684 175.137L505.679 175.143L497.969 168.775C497.972 168.771 497.976 168.767 497.979 168.763L555.249 99.5275C559.14 94.8142 565.034 92.7542 571.075 92.8185Z" fill="#FF743D" stroke="#AA1300" stroke-width="10"/>
<path d="M832.168 401.25C832.159 401.26 832.149 401.271 832.141 401.281L774.889 470.495C771.839 474.187 767.376 476.43 762.201 477.038C748.987 478.59 734.354 481.273 721.528 485.419C708.521 489.623 698.163 495.086 692.649 501.71L684.954 495.324L684.965 495.311H684.964C684.976 495.297 684.989 495.283 685.001 495.268L742.23 426.083L742.239 426.071C749.627 417.196 762.261 411.016 775.728 406.663C789.376 402.252 804.698 399.464 818.31 397.865C821.294 397.515 823.267 396.324 824.455 394.885V394.886L824.459 394.881L832.168 401.25Z" fill="#FF743D" stroke="#AA1300" stroke-width="10"/>
<path d="M749.934 432.456L749.924 432.468L749.925 432.469C749.239 433.292 748.637 434.125 748.116 434.965C747.706 435.628 747.384 437.12 747.898 439.835L748.318 442.102C750.228 452.669 751.46 463.041 752.029 473.178L752.141 475.347V475.348C752.262 477.933 753.095 480.807 754.969 483.618C767.575 502.534 792.907 530.903 834.482 557.088H834.481C840.963 561.17 846.292 566.856 849.56 572.938C852.778 578.925 854.33 585.982 851.932 592.341L838.282 628.534C837.639 630.24 836.749 631.786 835.635 633.145L835.627 633.154L835.62 633.161L778.345 702.403L770.625 696.046C771.033 695.548 771.383 694.956 771.65 694.247L785.3 658.053C786.301 655.397 785.929 651.475 783.476 646.912C781.074 642.444 776.985 638.008 771.877 634.791C729.13 607.868 702.772 578.511 689.372 558.405C686.494 554.085 685.082 549.456 684.876 545.057L684.769 542.98C684.185 532.574 682.87 521.877 680.798 510.937V510.936C680.12 507.353 679.955 502.79 682.339 498.941L682.638 498.469C683.344 497.374 684.123 496.322 684.964 495.312L742.182 426.14C742.201 426.117 742.22 426.093 742.239 426.071L749.934 432.456Z" fill="#FF743D" stroke="#AA1300" stroke-width="10"/>
<path d="M704.987 595.91C708.869 591.351 714.913 588.942 721.95 590.148C747.666 594.552 782.489 611.327 808.785 626.117C813.177 628.587 817.452 629.635 820.907 629.562C824.358 629.489 826.632 628.339 827.885 626.822L827.915 626.787L835.634 633.145C835.63 633.15 835.624 633.155 835.62 633.161L835.621 633.161L778.358 702.384L778.359 702.385C774.773 706.76 769.37 708.684 763.843 708.801C758.308 708.918 752.283 707.266 746.607 704.074C720.758 689.535 687.89 673.829 664.112 669.445L662.986 669.245C659.33 668.618 656.855 669.837 655.325 671.633L647.666 665.204L704.941 595.964L704.963 595.937L704.987 595.91Z" fill="#FF743D" stroke="#AA1300" stroke-width="10"/>
<path d="M712.646 602.337L655.371 671.579L655.348 671.606L655.325 671.633C640.001 689.628 620.506 704.197 597.271 714.535C596.116 715.049 595.357 715.63 594.899 716.183L587.196 709.807L644.471 640.566L644.473 640.564C646.164 638.523 648.325 637.118 650.482 636.158C672.404 626.404 690.67 612.721 704.987 595.909L712.646 602.337Z" fill="#FF743D" stroke="#AA1300" stroke-width="10"/>
<path d="M652.177 646.94L652.174 646.942C651.86 647.321 651.65 647.731 651.535 648.218V648.219C649.365 657.396 651.034 671.137 655.187 686.812C659.282 702.268 665.569 718.812 671.866 733.171C675.398 741.227 675.3 749.9 670.311 755.953L670.306 755.96L613.03 825.201L605.319 818.834C607.136 816.629 608.009 812.305 605.432 806.427C599.011 791.783 592.516 774.732 588.245 758.615C584.033 742.716 581.751 726.903 584.528 715.158C585.016 713.093 585.956 711.304 587.198 709.805L644.471 640.567C644.472 640.566 644.472 640.565 644.473 640.564L652.177 646.94Z" fill="#FF743D" stroke="#AA1300" stroke-width="10"/>
<path d="M401.569 616.488C407.678 613.909 414.996 615.61 420.887 618.358C448.379 631.177 476.511 640.758 504.398 646.554C509.094 647.53 513.949 649.572 518.246 652.911L519.183 653.644C538.998 669.257 566.441 697.666 587.665 739.257C590.119 744.067 594.22 748.484 598.937 751.578C603.696 754.699 608.624 756.182 612.677 755.852L656.748 752.266C659.67 752.028 661.497 750.924 662.594 749.593L662.6 749.586L670.311 755.954C670.309 755.956 670.307 755.958 670.305 755.96L613.035 825.194C609.995 828.881 605.53 831.047 600.283 831.474L556.212 835.06C549.29 835.623 542.167 833.109 536.177 829.181C530.146 825.226 524.799 819.543 521.482 813.043C500.659 772.237 473.685 744.696 454.835 730.047C451.855 727.732 448.436 726.281 445.087 725.585C416.371 719.617 387.506 709.774 359.385 696.662C354.514 694.39 350.604 694.045 348.391 694.859L348.182 694.942C337.271 699.548 326.847 708.87 317.846 719.741L310.142 713.366L310.144 713.364H310.143C310.164 713.338 310.186 713.313 310.207 713.288L367.418 644.125L367.419 644.123C376.882 632.695 388.535 621.99 401.569 616.488Z" fill="#FF743D" stroke="#AA1300" stroke-width="10"/>
<path d="M375.123 650.498L375.121 650.499L375.122 650.5C369.966 656.726 365.373 663.343 361.519 669.633V669.634C361.097 670.322 360.632 670.973 360.126 671.587L360.121 671.593L302.845 740.833L295.136 734.464C295.345 734.21 295.539 733.939 295.717 733.648H295.718C299.779 727.022 304.64 720.009 310.143 713.363L367.418 644.125L367.419 644.123L375.123 650.498Z" fill="#FF743D" stroke="#AA1300" stroke-width="10"/>
<path d="M92.5647 379.544C90.6849 381.829 89.7848 385.94 92.4572 391.607L113.951 437.189C116.121 441.789 120.025 445.952 124.684 448.907C129.366 451.877 134.403 453.374 138.629 453.178L141.377 453.062C170.12 451.981 209.26 454.442 235.724 468.361C240.2 470.715 243.814 474.284 246.583 477.906C255.547 489.63 265.129 500.951 275.238 511.809C278.697 515.524 281.681 519.999 282.984 524.835L283.246 525.825C288.69 546.78 290.375 577.731 275.356 609.127V609.128C274.084 611.787 274.019 615.682 275.826 620.131C277.609 624.518 281.06 628.991 285.96 632.369L331.474 663.748C336.006 666.873 340.608 668.261 344.403 668.302C348.205 668.342 350.892 667.066 352.411 665.224L352.415 665.219L360.125 671.587C360.124 671.588 360.122 671.589 360.12 671.591L360.121 671.592L302.846 740.833C298.955 745.546 293.061 747.607 287.02 747.542C280.968 747.477 274.46 745.316 268.523 741.223L223.008 709.843C216.573 705.406 211.835 699.409 209.286 693.136C206.763 686.925 206.228 679.971 209.059 674.053C222.82 645.286 221.299 616.855 216.294 597.588L216.053 596.677C215.316 593.942 213.436 590.863 210.643 587.863C200.965 577.468 191.755 566.652 183.09 555.464L181.363 553.221C179.3 550.522 176.915 548.23 174.317 546.74L173.794 546.453C149 533.412 110.512 531.075 81.8176 532.407C75.0683 532.721 68.0241 530.381 62.052 526.593C56.0563 522.79 50.7324 517.272 47.6311 510.695L26.1369 465.114C22.2784 456.932 22.6081 448.459 27.5666 442.432L27.5754 442.421L84.8273 373.209C84.8323 373.203 84.837 373.197 84.842 373.19V373.191L84.8508 373.181L92.5647 379.544Z" fill="#FF743D" stroke="#AA1300" stroke-width="10"/>
<path fill-rule="evenodd" clip-rule="evenodd" d="M88.7035 376.367C90.8896 373.71 94.2219 371.926 98.4191 371.407C135.051 366.884 156.251 352.401 166.891 339.573L109.616 408.814C98.9752 421.642 77.776 436.125 41.1435 440.648C36.9464 441.167 33.6141 442.951 31.4279 445.608L88.7035 376.367Z" fill="#FF743D"/>
<path d="M173.301 339.455C172.515 340.548 171.662 341.653 170.74 342.765L113.468 412.001C113.467 412.002 113.465 412.004 113.464 412.006L105.763 405.627L105.767 405.622C106.545 404.684 107.258 403.76 107.908 402.856L108.006 402.719L108.114 402.589L165.39 333.349L173.301 339.455Z" fill="#FF743D" stroke="#AA1300" stroke-width="10"/>
<path d="M87.4697 144.314C87.0612 144.812 86.7116 145.404 86.4443 146.113L72.7959 182.306C71.7946 184.961 72.1664 188.883 74.6201 193.448C77.0231 197.917 81.1132 202.354 86.2217 205.572L88.1445 206.79C128.273 232.427 153.664 260.099 167.256 279.792C170.343 284.266 171.876 289.115 172.081 293.724L172.177 295.679C172.697 305.47 173.865 315.521 175.702 325.79L175.839 326.633C176.459 330.881 176.069 335.604 173.302 339.453L173.203 339.591L173.095 339.722L115.819 408.963L107.907 402.857C108.608 401.882 109.073 400.109 108.675 397.358L108.583 396.793C106.676 386.134 105.458 375.671 104.915 365.45L104.815 363.409C104.695 360.705 103.787 357.665 101.75 354.713C88.7164 335.829 63.7224 308.534 23.6172 283.274C17.1358 279.191 11.8066 273.505 8.53711 267.423C5.31843 261.436 3.76503 254.378 6.16309 248.019L19.8125 211.824C20.4557 210.119 21.3466 208.573 22.4609 207.214L22.4678 207.206L22.4746 207.198L79.7188 137.996C79.7248 137.989 79.7303 137.981 79.7363 137.974V137.975L79.751 137.957L87.4697 144.314Z" fill="#FF743D" stroke="#AA1300" stroke-width="10"/>
<path fill-rule="evenodd" clip-rule="evenodd" d="M83.6033 141.144C88.4406 135.244 98.9727 134.984 109.041 140.646C134.517 154.975 167.401 170.8 191.97 175.621C197.606 176.726 202.144 174.894 204.964 171.547L147.689 240.787C144.868 244.135 140.33 245.967 134.695 244.862C110.126 240.041 77.2411 224.216 51.7654 209.887C41.6972 204.225 31.1651 204.485 26.3277 210.385L83.6033 141.144Z" fill="#FF743D"/>
<path d="M266.979 130.708L266.972 130.715C266.967 130.722 266.961 130.728 266.955 130.735L209.703 199.95L209.698 199.957C208.055 201.936 205.983 203.4 203.768 204.433L203.769 204.434C182.816 214.207 165.307 227.641 151.512 244.009L143.836 237.6L201.112 168.36L201.141 168.325C215.904 150.807 234.594 136.496 256.817 126.13C257.926 125.613 258.732 124.987 259.28 124.328L266.979 130.708Z" fill="#FF743D" stroke="#AA1300" stroke-width="10"/>
<path d="M301.035 254.174C274.358 286.66 270.131 338.508 297.379 396.289C319.401 442.991 357.459 483.798 401.198 512.012C444.973 540.249 493.994 555.593 537.812 552.028C571.201 549.31 596.717 536.032 613.223 515.932L613.235 515.918L620.952 522.279C620.948 522.283 620.944 522.288 620.94 522.292L563.676 591.518L563.676 591.519C545.207 614.01 517.03 628.332 481.348 631.236C434.76 635.027 383.571 618.728 338.502 589.656C293.396 560.561 253.976 518.395 231.058 469.795C202.759 409.783 206.125 353.487 236.031 317.069L236.043 317.055L293.318 247.815L301.035 254.174Z" fill="#FF743D" stroke="#AA1300" stroke-width="10"/>
<path fill-rule="evenodd" clip-rule="evenodd" d="M297.171 251.001C314.658 229.705 341.505 215.905 376.04 213.095C466.447 205.737 576.461 276.383 621.402 371.685C649.175 430.581 645.379 484.652 617.088 519.105L559.812 588.346C588.104 553.893 591.9 499.822 564.126 440.925C519.186 345.623 409.171 274.978 318.765 282.336C284.23 285.146 257.383 298.946 239.895 320.242L297.171 251.001Z" fill="#FF743D"/>
<path fill-rule="evenodd" clip-rule="evenodd" d="M650.268 546.478C629.162 572.2 596.718 588.9 554.862 592.306C445.29 601.223 312.708 515.661 258.732 401.199C225.375 330.461 229.846 265.239 263.991 223.628L206.715 292.869C172.57 334.48 168.099 399.702 201.457 470.439C255.433 584.902 388.015 670.464 497.586 661.547C539.442 658.141 571.886 641.44 592.992 615.719L650.268 546.478Z" fill="#FF743D"/>
<path d="M358.992 172.816C415.162 168.245 476.784 187.884 531.021 222.885C585.292 257.91 632.613 308.594 660.048 366.775C693.931 438.628 689.892 506.072 654.133 549.65L654.126 549.658L654.121 549.666L596.886 618.856C596.877 618.868 596.867 618.88 596.858 618.891L596.857 618.89L596.845 618.906L589.127 612.548C589.132 612.543 589.135 612.537 589.139 612.532L589.186 612.474C621.664 572.825 626.54 509.862 593.728 440.281C567.188 383.999 521.229 334.671 468.323 300.528C415.382 266.363 355.927 247.678 302.527 252.024C261.817 255.337 230.704 271.516 210.581 296.04L210.568 296.055L202.85 289.697C202.854 289.692 202.859 289.687 202.863 289.681L260.125 220.456C282.214 193.538 315.989 176.316 358.992 172.816Z" fill="#FF743D" stroke="#AA1300" stroke-width="10"/>
<path d="M249.666 168.872C249.033 169.639 248.314 171.666 249.953 175.141C251.264 177.921 253.637 180.507 256.478 182.327C259.351 184.167 262.261 184.95 264.505 184.768C265.94 184.651 266.751 184.186 267.209 183.734L267.383 183.543L267.389 183.537L275.099 189.904C275.097 189.906 275.095 189.908 275.093 189.91L217.823 259.145C215.438 262.037 211.956 263.657 208.042 263.976C203.054 264.381 197.986 262.665 193.809 259.989C189.6 257.293 185.848 253.346 183.632 248.646C180.925 242.906 180.817 236.43 184.675 231.751L184.68 231.745L241.956 162.505L249.666 168.872Z" fill="#FF743D" stroke="#AA1300" stroke-width="10"/>
<path d="M251.733 157.68C256.72 157.275 261.787 158.991 265.964 161.667C270.174 164.363 273.925 168.31 276.141 173.01C278.848 178.75 278.957 185.226 275.099 189.905L275.094 189.911L217.819 259.151L210.108 252.784C210.74 252.017 211.459 249.99 209.821 246.515C208.509 243.735 206.136 241.149 203.295 239.329C200.422 237.489 197.512 236.706 195.268 236.888C193.629 237.022 192.805 237.61 192.39 238.113L192.385 238.119L184.675 231.752C184.677 231.749 184.679 231.747 184.681 231.745H184.68L241.956 162.505C244.34 159.616 247.821 157.999 251.733 157.68Z" fill="#FF743D" stroke="#AA1300" stroke-width="10"/>
<path d="M197.778 300.144C202.766 299.738 207.833 301.455 212.011 304.13C216.22 306.827 219.972 310.774 222.188 315.473C224.901 321.228 225.002 327.721 221.117 332.4L221.118 332.401L163.843 401.642L163.842 401.641C163.839 401.645 163.836 401.649 163.833 401.653L156.138 395.268L156.147 395.256C156.782 394.493 157.511 392.465 155.867 388.979C154.556 386.198 152.183 383.612 149.342 381.793C146.469 379.952 143.559 379.17 141.315 379.352C139.683 379.485 138.86 380.069 138.444 380.568L130.748 374.182L188.024 304.942L188.033 304.93C190.418 302.065 193.885 300.461 197.778 300.144Z" fill="#FF743D" stroke="#AA1300" stroke-width="10"/>
<path d="M195.729 311.315L195.719 311.327C195.084 312.09 194.355 314.118 195.999 317.604C197.31 320.385 199.683 322.971 202.524 324.791C205.397 326.631 208.307 327.414 210.551 327.231C212.183 327.099 213.007 326.515 213.423 326.016L221.118 332.401L163.842 401.641L163.838 401.647L163.834 401.653C161.449 404.519 157.981 406.122 154.088 406.439C149.1 406.845 144.033 405.129 139.855 402.453C135.646 399.757 131.894 395.809 129.678 391.11C126.965 385.356 126.863 378.862 130.749 374.182L188.023 304.942C188.026 304.938 188.03 304.934 188.033 304.931L195.729 311.315Z" fill="#FF743D" stroke="#AA1300" stroke-width="10"/>
<path fill-rule="evenodd" clip-rule="evenodd" d="M450.971 600.691C448.706 603.413 448.392 607.677 450.572 612.299C454.099 619.779 462.82 625.365 470.052 624.777C472.815 624.552 474.961 623.459 476.361 621.776L419.085 691.017C417.685 692.7 415.539 693.793 412.777 694.018C405.545 694.606 396.823 689.02 393.296 681.54C391.116 676.917 391.431 672.654 393.696 669.932L450.971 600.691Z" fill="#FF743D"/>
<path fill-rule="evenodd" clip-rule="evenodd" d="M476.361 621.776C478.626 619.054 478.94 614.791 476.76 610.168C473.233 602.688 464.511 597.102 457.279 597.69C454.517 597.915 452.371 599.008 450.971 600.691L393.696 669.932C395.096 668.249 397.241 667.156 400.004 666.931C407.236 666.343 415.957 671.929 419.485 679.409C421.664 684.031 421.35 688.295 419.085 691.017L476.361 621.776Z" fill="#FF743D"/>
<path fill-rule="evenodd" clip-rule="evenodd" d="M297.022 498.273C295.622 499.971 293.469 501.074 290.691 501.3C283.46 501.889 274.738 496.302 271.211 488.823C269.038 484.215 269.343 479.964 271.588 477.241L214.313 546.482C212.068 549.205 211.762 553.456 213.935 558.063C217.463 565.543 226.184 571.13 233.416 570.541C236.193 570.315 238.347 569.211 239.746 567.514L297.022 498.273Z" fill="#FF743D"/>
<path fill-rule="evenodd" clip-rule="evenodd" d="M271.588 477.241C272.988 475.543 275.141 474.44 277.919 474.214C285.151 473.625 293.872 479.211 297.399 486.691C299.572 491.299 299.267 495.55 297.022 498.273L239.746 567.514C241.991 564.791 242.296 560.54 240.124 555.932C236.596 548.452 227.875 542.866 220.643 543.455C217.866 543.681 215.712 544.784 214.313 546.482L271.588 477.241Z" fill="#FF743D"/>
<path fill-rule="evenodd" clip-rule="evenodd" d="M461.681 171.251C463.946 168.529 464.26 164.265 462.08 159.642C458.553 152.162 449.831 146.576 442.599 147.165C439.837 147.389 437.691 148.483 436.291 150.165L379.016 219.406C380.416 217.724 382.561 216.63 385.324 216.405C392.556 215.817 401.277 221.403 404.805 228.883C406.984 233.506 406.67 237.769 404.405 240.491L461.681 171.251Z" fill="#FF743D"/>
<path fill-rule="evenodd" clip-rule="evenodd" d="M436.291 150.165C434.026 152.887 433.712 157.151 435.892 161.774C439.419 169.254 448.14 174.84 455.372 174.251C458.135 174.026 460.281 172.933 461.681 171.251L404.405 240.491C403.005 242.174 400.86 243.267 398.097 243.492C390.865 244.081 382.143 238.494 378.616 231.014C376.436 226.392 376.751 222.128 379.016 219.406L436.291 150.165Z" fill="#FF743D"/>
<path fill-rule="evenodd" clip-rule="evenodd" d="M615.63 273.668C617.03 271.971 619.183 270.867 621.96 270.641C629.192 270.053 637.914 275.639 641.441 283.119C643.614 287.727 643.309 291.978 641.064 294.701L583.788 363.941C586.033 361.218 586.338 356.967 584.166 352.36C580.638 344.88 571.917 339.293 564.685 339.882C561.908 340.108 559.754 341.212 558.355 342.909L615.63 273.668Z" fill="#FF743D"/>
<path fill-rule="evenodd" clip-rule="evenodd" d="M641.064 294.701C639.664 296.398 637.51 297.502 634.733 297.728C627.501 298.316 618.78 292.73 615.253 285.25C613.08 280.642 613.385 276.391 615.63 273.668L558.355 342.909C556.11 345.632 555.804 349.883 557.977 354.491C561.504 361.971 570.226 367.557 577.458 366.969C580.235 366.743 582.388 365.639 583.788 363.942L641.064 294.701Z" fill="#FF743D"/>
<path d="M647.335 577.207C652.323 576.801 657.389 578.517 661.567 581.193C665.776 583.889 669.527 587.837 671.743 592.536C674.45 598.276 674.56 604.752 670.701 609.431L670.696 609.437L613.421 678.677L605.71 672.31C606.342 671.543 607.062 669.516 605.423 666.042C604.112 663.261 601.739 660.675 598.898 658.855C596.025 657.015 593.114 656.232 590.87 656.415C589.231 656.548 588.407 657.136 587.992 657.639L587.987 657.645L580.278 651.278C580.279 651.276 580.281 651.273 580.283 651.271H580.282L637.558 582.031C639.942 579.143 643.423 577.525 647.335 577.207Z" fill="#FF743D" stroke="#AA1300" stroke-width="10"/>
<path d="M645.268 588.398C644.636 589.165 643.917 591.193 645.555 594.667C646.866 597.448 649.239 600.034 652.08 601.853C654.953 603.694 657.864 604.476 660.108 604.294C661.543 604.177 662.353 603.712 662.811 603.261L662.986 603.069L662.991 603.063L670.701 609.431C670.7 609.433 670.697 609.434 670.696 609.436L613.425 678.671C611.041 681.563 607.558 683.183 603.644 683.502C598.656 683.908 593.589 682.191 589.411 679.516C585.202 676.819 581.451 672.872 579.235 668.173C576.528 662.432 576.419 655.957 580.278 651.277L580.282 651.271L637.558 582.031L645.268 588.398Z" fill="#FF743D" stroke="#AA1300" stroke-width="10"/>
<path fill-rule="evenodd" clip-rule="evenodd" d="M695.386 442.727C693.121 445.449 692.807 449.713 694.987 454.336C698.514 461.816 707.236 467.402 714.467 466.813C717.23 466.589 719.376 465.495 720.776 463.813L663.5 533.054C662.1 534.736 659.955 535.829 657.192 536.054C649.96 536.643 641.239 531.056 637.711 523.577C635.531 518.954 635.846 514.69 638.111 511.968L695.386 442.727Z" fill="#FF743D"/>
<path fill-rule="evenodd" clip-rule="evenodd" d="M720.776 463.813C723.041 461.091 723.355 456.827 721.175 452.204C717.648 444.724 708.927 439.138 701.695 439.727C698.932 439.952 696.786 441.045 695.386 442.727L638.111 511.968C639.511 510.286 641.656 509.192 644.419 508.968C651.651 508.379 660.372 513.965 663.9 521.445C666.08 526.068 665.765 530.332 663.5 533.053L720.776 463.813Z" fill="#FF743D"/>
<mask id="path-38-outside-1_28_10" maskUnits="userSpaceOnUse" x="56.2755" y="-1" width="802" height="772" fill="black">
<rect fill="white" x="56.2755" y="-1" width="802" height="772"/>
<path fill-rule="evenodd" clip-rule="evenodd" d="M258.93 130.662C262.067 129.199 264.404 126.774 265.15 123.366C268.934 106.077 268.23 76.4618 250.801 36.2142C245.874 24.836 249.952 14.5417 260.928 13.6484L304.998 10.062C315.804 9.18257 328.803 17.7691 334.428 28.9115C348.536 56.8584 370.355 92.8014 393.141 111.934C396.791 114.999 401.119 116.752 405.264 117.54C435.917 123.366 466.871 133.737 496.992 147.924C502.582 150.557 508.386 151.559 512.584 149.71C531.166 141.53 547.44 121.518 558.115 104.1C562.953 96.2032 575.573 95.5588 586.734 103.254L632.249 134.633C643.584 142.448 648.629 155.572 644.526 164.149C629.83 194.87 631.815 225.183 637.301 245.302C638.319 249.035 640.711 252.756 643.779 256.074C652.556 265.566 660.936 275.406 668.86 285.556C671.575 289.034 674.98 292.148 678.89 294.219C699.971 305.382 735.56 317.855 777.544 316.14C788.718 315.684 802.183 323.827 807.536 335.179L829.031 380.761C834.302 391.938 829.52 401.583 818.893 402.831C790.355 406.184 754.734 414.785 743.865 432.333C742.468 434.589 742.39 437.616 742.986 440.765C745.237 452.654 746.615 464.279 747.146 475.582C747.31 479.074 748.432 482.825 750.808 486.391C763.811 505.902 789.656 534.765 831.817 561.319C843.407 568.619 850.653 581.562 847.253 590.576L833.604 626.77C830.257 635.646 817.987 637.029 806.334 630.474C780.056 615.695 745.893 599.32 721.106 595.076C715.759 594.16 711.499 595.973 708.794 599.151C693.973 616.554 675.092 630.68 652.514 640.726C649.659 641.996 647.387 644.028 646.669 647.068C641.723 667.99 654.569 706.175 667.287 735.179C672.198 746.38 667.96 756.37 657.153 757.25L613.082 760.836C602.106 761.729 588.983 752.84 583.211 741.53C562.019 700.001 534.543 671.907 515.178 656.859C511.54 654.032 507.403 652.285 503.38 651.449C475.078 645.567 446.58 635.855 418.774 622.889C413.313 620.343 407.653 619.347 403.513 621.094C384.629 629.067 368.069 649.376 357.256 667.02C352.417 674.916 339.797 675.56 328.636 667.865L283.122 636.485C271.786 628.67 266.742 615.546 270.845 606.97C285.464 576.41 283.577 546.254 278.156 526.135C277.136 522.35 274.704 518.573 271.578 515.216C261.362 504.243 251.676 492.799 242.611 480.943C240.126 477.692 237.036 474.701 233.397 472.787C207.341 459.082 167.685 456.834 138.861 458.172C127.886 458.682 114.7 450.499 109.429 439.322L87.9346 393.74C82.5812 382.388 87.6571 372.737 98.419 371.407C137.979 366.523 159.54 350.023 169.242 336.535C171.092 333.962 171.455 330.438 170.78 326.671C168.783 315.509 167.559 304.584 167.086 293.946C166.923 290.289 165.704 286.345 163.141 282.633C149.72 263.188 124.231 235.42 83.5573 209.802C71.9673 202.502 64.7177 189.557 68.117 180.542L81.7663 144.348C85.1135 135.472 97.3879 134.093 109.041 140.646C134.517 154.975 167.401 170.8 191.97 175.621C197.606 176.726 202.144 174.894 204.964 171.546C219.243 154.603 237.342 140.731 258.93 130.662ZM621.402 371.685C666.343 466.986 628.624 549.654 538.218 557.011C447.812 564.369 337.797 493.723 292.857 398.422C247.916 303.12 285.634 220.452 376.04 213.095C466.447 205.737 576.461 276.383 621.402 371.685ZM655.526 368.907C709.502 483.37 664.433 583.389 554.862 592.306C445.29 601.223 312.708 515.661 258.732 401.199C204.756 286.736 249.825 186.717 359.397 177.8C468.968 168.883 601.55 254.445 655.526 368.907ZM271.619 175.142C275.146 182.622 272.143 189.162 264.911 189.751C257.679 190.339 248.958 184.753 245.431 177.273C241.903 169.793 244.906 163.253 252.138 162.664C259.37 162.076 268.092 167.662 271.619 175.142ZM210.957 332.215C218.189 331.626 221.192 325.086 217.665 317.606C214.138 310.126 205.416 304.54 198.184 305.128C190.952 305.717 187.949 312.257 191.477 319.737C195.004 327.217 203.725 332.803 210.957 332.215ZM476.76 610.168C473.233 602.688 464.511 597.102 457.279 597.69C450.048 598.279 447.044 604.819 450.572 612.299C454.099 619.779 462.82 625.365 470.052 624.777C477.284 624.188 480.287 617.648 476.76 610.168ZM277.919 474.214C285.15 473.625 293.872 479.211 297.399 486.691C300.926 494.171 297.923 500.712 290.691 501.3C283.459 501.889 274.738 496.303 271.211 488.823C267.684 481.343 270.687 474.802 277.919 474.214ZM435.892 161.773C439.419 169.253 448.14 174.84 455.372 174.251C462.604 173.663 465.607 167.122 462.08 159.642C458.553 152.162 449.831 146.576 442.599 147.165C435.367 147.753 432.364 154.293 435.892 161.773ZM634.733 297.728C627.501 298.316 618.78 292.73 615.253 285.25C611.725 277.77 614.728 271.23 621.96 270.641C629.192 270.053 637.914 275.639 641.441 283.119C644.968 290.599 641.965 297.139 634.733 297.728ZM641.033 596.799C637.506 589.319 640.509 582.779 647.741 582.191C654.973 581.602 663.694 587.188 667.221 594.668C670.749 602.148 667.746 608.689 660.514 609.277C653.282 609.866 644.56 604.279 641.033 596.799ZM701.695 439.727C694.463 440.315 691.46 446.856 694.987 454.336C698.514 461.816 707.236 467.402 714.467 466.813C721.699 466.225 724.702 459.684 721.175 452.204C717.648 444.724 708.926 439.138 701.695 439.727Z"/>
</mask>
<path fill-rule="evenodd" clip-rule="evenodd" d="M258.93 130.662C262.067 129.199 264.404 126.774 265.15 123.366C268.934 106.077 268.23 76.4618 250.801 36.2142C245.874 24.836 249.952 14.5417 260.928 13.6484L304.998 10.062C315.804 9.18257 328.803 17.7691 334.428 28.9115C348.536 56.8584 370.355 92.8014 393.141 111.934C396.791 114.999 401.119 116.752 405.264 117.54C435.917 123.366 466.871 133.737 496.992 147.924C502.582 150.557 508.386 151.559 512.584 149.71C531.166 141.53 547.44 121.518 558.115 104.1C562.953 96.2032 575.573 95.5588 586.734 103.254L632.249 134.633C643.584 142.448 648.629 155.572 644.526 164.149C629.83 194.87 631.815 225.183 637.301 245.302C638.319 249.035 640.711 252.756 643.779 256.074C652.556 265.566 660.936 275.406 668.86 285.556C671.575 289.034 674.98 292.148 678.89 294.219C699.971 305.382 735.56 317.855 777.544 316.14C788.718 315.684 802.183 323.827 807.536 335.179L829.031 380.761C834.302 391.938 829.52 401.583 818.893 402.831C790.355 406.184 754.734 414.785 743.865 432.333C742.468 434.589 742.39 437.616 742.986 440.765C745.237 452.654 746.615 464.279 747.146 475.582C747.31 479.074 748.432 482.825 750.808 486.391C763.811 505.902 789.656 534.765 831.817 561.319C843.407 568.619 850.653 581.562 847.253 590.576L833.604 626.77C830.257 635.646 817.987 637.029 806.334 630.474C780.056 615.695 745.893 599.32 721.106 595.076C715.759 594.16 711.499 595.973 708.794 599.151C693.973 616.554 675.092 630.68 652.514 640.726C649.659 641.996 647.387 644.028 646.669 647.068C641.723 667.99 654.569 706.175 667.287 735.179C672.198 746.38 667.96 756.37 657.153 757.25L613.082 760.836C602.106 761.729 588.983 752.84 583.211 741.53C562.019 700.001 534.543 671.907 515.178 656.859C511.54 654.032 507.403 652.285 503.38 651.449C475.078 645.567 446.58 635.855 418.774 622.889C413.313 620.343 407.653 619.347 403.513 621.094C384.629 629.067 368.069 649.376 357.256 667.02C352.417 674.916 339.797 675.56 328.636 667.865L283.122 636.485C271.786 628.67 266.742 615.546 270.845 606.97C285.464 576.41 283.577 546.254 278.156 526.135C277.136 522.35 274.704 518.573 271.578 515.216C261.362 504.243 251.676 492.799 242.611 480.943C240.126 477.692 237.036 474.701 233.397 472.787C207.341 459.082 167.685 456.834 138.861 458.172C127.886 458.682 114.7 450.499 109.429 439.322L87.9346 393.74C82.5812 382.388 87.6571 372.737 98.419 371.407C137.979 366.523 159.54 350.023 169.242 336.535C171.092 333.962 171.455 330.438 170.78 326.671C168.783 315.509 167.559 304.584 167.086 293.946C166.923 290.289 165.704 286.345 163.141 282.633C149.72 263.188 124.231 235.42 83.5573 209.802C71.9673 202.502 64.7177 189.557 68.117 180.542L81.7663 144.348C85.1135 135.472 97.3879 134.093 109.041 140.646C134.517 154.975 167.401 170.8 191.97 175.621C197.606 176.726 202.144 174.894 204.964 171.546C219.243 154.603 237.342 140.731 258.93 130.662ZM621.402 371.685C666.343 466.986 628.624 549.654 538.218 557.011C447.812 564.369 337.797 493.723 292.857 398.422C247.916 303.12 285.634 220.452 376.04 213.095C466.447 205.737 576.461 276.383 621.402 371.685ZM655.526 368.907C709.502 483.37 664.433 583.389 554.862 592.306C445.29 601.223 312.708 515.661 258.732 401.199C204.756 286.736 249.825 186.717 359.397 177.8C468.968 168.883 601.55 254.445 655.526 368.907ZM271.619 175.142C275.146 182.622 272.143 189.162 264.911 189.751C257.679 190.339 248.958 184.753 245.431 177.273C241.903 169.793 244.906 163.253 252.138 162.664C259.37 162.076 268.092 167.662 271.619 175.142ZM210.957 332.215C218.189 331.626 221.192 325.086 217.665 317.606C214.138 310.126 205.416 304.54 198.184 305.128C190.952 305.717 187.949 312.257 191.477 319.737C195.004 327.217 203.725 332.803 210.957 332.215ZM476.76 610.168C473.233 602.688 464.511 597.102 457.279 597.69C450.048 598.279 447.044 604.819 450.572 612.299C454.099 619.779 462.82 625.365 470.052 624.777C477.284 624.188 480.287 617.648 476.76 610.168ZM277.919 474.214C285.15 473.625 293.872 479.211 297.399 486.691C300.926 494.171 297.923 500.712 290.691 501.3C283.459 501.889 274.738 496.303 271.211 488.823C267.684 481.343 270.687 474.802 277.919 474.214ZM435.892 161.773C439.419 169.253 448.14 174.84 455.372 174.251C462.604 173.663 465.607 167.122 462.08 159.642C458.553 152.162 449.831 146.576 442.599 147.165C435.367 147.753 432.364 154.293 435.892 161.773ZM634.733 297.728C627.501 298.316 618.78 292.73 615.253 285.25C611.725 277.77 614.728 271.23 621.96 270.641C629.192 270.053 637.914 275.639 641.441 283.119C644.968 290.599 641.965 297.139 634.733 297.728ZM641.033 596.799C637.506 589.319 640.509 582.779 647.741 582.191C654.973 581.602 663.694 587.188 667.221 594.668C670.749 602.148 667.746 608.689 660.514 609.277C653.282 609.866 644.56 604.279 641.033 596.799ZM701.695 439.727C694.463 440.315 691.46 446.856 694.987 454.336C698.514 461.816 707.236 467.402 714.467 466.813C721.699 466.225 724.702 459.684 721.175 452.204C717.648 444.724 708.926 439.138 701.695 439.727Z" fill="#48243B"/>
<path fill-rule="evenodd" clip-rule="evenodd" d="M258.93 130.662C262.067 129.199 264.404 126.774 265.15 123.366C268.934 106.077 268.23 76.4618 250.801 36.2142C245.874 24.836 249.952 14.5417 260.928 13.6484L304.998 10.062C315.804 9.18257 328.803 17.7691 334.428 28.9115C348.536 56.8584 370.355 92.8014 393.141 111.934C396.791 114.999 401.119 116.752 405.264 117.54C435.917 123.366 466.871 133.737 496.992 147.924C502.582 150.557 508.386 151.559 512.584 149.71C531.166 141.53 547.44 121.518 558.115 104.1C562.953 96.2032 575.573 95.5588 586.734 103.254L632.249 134.633C643.584 142.448 648.629 155.572 644.526 164.149C629.83 194.87 631.815 225.183 637.301 245.302C638.319 249.035 640.711 252.756 643.779 256.074C652.556 265.566 660.936 275.406 668.86 285.556C671.575 289.034 674.98 292.148 678.89 294.219C699.971 305.382 735.56 317.855 777.544 316.14C788.718 315.684 802.183 323.827 807.536 335.179L829.031 380.761C834.302 391.938 829.52 401.583 818.893 402.831C790.355 406.184 754.734 414.785 743.865 432.333C742.468 434.589 742.39 437.616 742.986 440.765C745.237 452.654 746.615 464.279 747.146 475.582C747.31 479.074 748.432 482.825 750.808 486.391C763.811 505.902 789.656 534.765 831.817 561.319C843.407 568.619 850.653 581.562 847.253 590.576L833.604 626.77C830.257 635.646 817.987 637.029 806.334 630.474C780.056 615.695 745.893 599.32 721.106 595.076C715.759 594.16 711.499 595.973 708.794 599.151C693.973 616.554 675.092 630.68 652.514 640.726C649.659 641.996 647.387 644.028 646.669 647.068C641.723 667.99 654.569 706.175 667.287 735.179C672.198 746.38 667.96 756.37 657.153 757.25L613.082 760.836C602.106 761.729 588.983 752.84 583.211 741.53C562.019 700.001 534.543 671.907 515.178 656.859C511.54 654.032 507.403 652.285 503.38 651.449C475.078 645.567 446.58 635.855 418.774 622.889C413.313 620.343 407.653 619.347 403.513 621.094C384.629 629.067 368.069 649.376 357.256 667.02C352.417 674.916 339.797 675.56 328.636 667.865L283.122 636.485C271.786 628.67 266.742 615.546 270.845 606.97C285.464 576.41 283.577 546.254 278.156 526.135C277.136 522.35 274.704 518.573 271.578 515.216C261.362 504.243 251.676 492.799 242.611 480.943C240.126 477.692 237.036 474.701 233.397 472.787C207.341 459.082 167.685 456.834 138.861 458.172C127.886 458.682 114.7 450.499 109.429 439.322L87.9346 393.74C82.5812 382.388 87.6571 372.737 98.419 371.407C137.979 366.523 159.54 350.023 169.242 336.535C171.092 333.962 171.455 330.438 170.78 326.671C168.783 315.509 167.559 304.584 167.086 293.946C166.923 290.289 165.704 286.345 163.141 282.633C149.72 263.188 124.231 235.42 83.5573 209.802C71.9673 202.502 64.7177 189.557 68.117 180.542L81.7663 144.348C85.1135 135.472 97.3879 134.093 109.041 140.646C134.517 154.975 167.401 170.8 191.97 175.621C197.606 176.726 202.144 174.894 204.964 171.546C219.243 154.603 237.342 140.731 258.93 130.662ZM621.402 371.685C666.343 466.986 628.624 549.654 538.218 557.011C447.812 564.369 337.797 493.723 292.857 398.422C247.916 303.12 285.634 220.452 376.04 213.095C466.447 205.737 576.461 276.383 621.402 371.685ZM655.526 368.907C709.502 483.37 664.433 583.389 554.862 592.306C445.29 601.223 312.708 515.661 258.732 401.199C204.756 286.736 249.825 186.717 359.397 177.8C468.968 168.883 601.55 254.445 655.526 368.907ZM271.619 175.142C275.146 182.622 272.143 189.162 264.911 189.751C257.679 190.339 248.958 184.753 245.431 177.273C241.903 169.793 244.906 163.253 252.138 162.664C259.37 162.076 268.092 167.662 271.619 175.142ZM210.957 332.215C218.189 331.626 221.192 325.086 217.665 317.606C214.138 310.126 205.416 304.54 198.184 305.128C190.952 305.717 187.949 312.257 191.477 319.737C195.004 327.217 203.725 332.803 210.957 332.215ZM476.76 610.168C473.233 602.688 464.511 597.102 457.279 597.69C450.048 598.279 447.044 604.819 450.572 612.299C454.099 619.779 462.82 625.365 470.052 624.777C477.284 624.188 480.287 617.648 476.76 610.168ZM277.919 474.214C285.15 473.625 293.872 479.211 297.399 486.691C300.926 494.171 297.923 500.712 290.691 501.3C283.459 501.889 274.738 496.303 271.211 488.823C267.684 481.343 270.687 474.802 277.919 474.214ZM435.892 161.773C439.419 169.253 448.14 174.84 455.372 174.251C462.604 173.663 465.607 167.122 462.08 159.642C458.553 152.162 449.831 146.576 442.599 147.165C435.367 147.753 432.364 154.293 435.892 161.773ZM634.733 297.728C627.501 298.316 618.78 292.73 615.253 285.25C611.725 277.77 614.728 271.23 621.96 270.641C629.192 270.053 637.914 275.639 641.441 283.119C644.968 290.599 641.965 297.139 634.733 297.728ZM641.033 596.799C637.506 589.319 640.509 582.779 647.741 582.191C654.973 581.602 663.694 587.188 667.221 594.668C670.749 602.148 667.746 608.689 660.514 609.277C653.282 609.866 644.56 604.279 641.033 596.799ZM701.695 439.727C694.463 440.315 691.46 446.856 694.987 454.336C698.514 461.816 707.236 467.402 714.467 466.813C721.699 466.225 724.702 459.684 721.175 452.204C717.648 444.724 708.926 439.138 701.695 439.727Z" stroke="#AA1300" stroke-width="20" mask="url(#path-38-outside-1_28_10)"/>
<path d="M581.844 379.924L591.093 387.569C591.092 387.569 591.091 387.57 591.09 387.571L591.091 387.572L567.148 416.517L567.147 416.516C567.086 416.589 567.026 416.661 566.964 416.732L557.852 408.926L581.794 379.981L581.86 379.902L581.929 379.824C581.9 379.857 581.872 379.89 581.844 379.924ZM557.899 408.87L557.901 408.868L557.939 408.823C557.925 408.839 557.912 408.855 557.899 408.87Z" fill="#FF743D" stroke="#AA1300" stroke-width="12"/>
<path d="M592.403 384.224C591.464 397.623 586.91 409.68 578.974 419.283L578.972 419.286L555.029 448.23L545.781 440.584C551.96 433.107 555.707 423.5 556.49 412.331L556.624 410.41L557.852 408.926L581.794 379.981L593.709 365.578L592.403 384.224Z" fill="#FF743D" stroke="#AA1300" stroke-width="12"/>
<path d="M411.732 280.981C398.94 296.543 396.455 321.807 410.087 350.714C421.141 374.156 440.451 394.819 462.812 409.141C485.21 423.488 510.143 431.144 532.273 429.343C549.147 427.97 561.701 421.346 569.724 411.639L569.726 411.637L578.974 419.284L578.972 419.286L555.029 448.23L555.028 448.229C544.642 460.796 528.903 468.654 509.304 470.249C483.88 472.317 456.359 463.54 432.396 448.191C408.393 432.817 387.43 410.52 375.29 384.777C360.377 353.152 361.869 322.56 378.52 302.305L378.531 302.292L402.475 273.346L411.732 280.981Z" fill="#FF743D" stroke="#AA1300" stroke-width="12"/>
<path d="M600.986 161.098C605.502 158.65 610.132 160.76 612.45 162.489C614.862 164.289 617.9 167.943 617.35 172.693L592.966 383.096L592.965 383.095C592.784 384.667 592.195 386.235 591.093 387.568L591.09 387.571L567.148 416.517L557.899 408.871C557.367 409.515 557.158 410.189 557.103 410.659L581.36 201.352L408.417 295.127L406.511 296.179L406.078 296.585L405.138 296.997C398.029 300.111 392.231 304.523 387.79 309.926L387.778 309.939L378.52 302.306C378.524 302.301 378.529 302.296 378.533 302.291H378.532L402.474 273.346C408.015 266.61 415.128 261.184 423.589 257.361C423.817 257.206 424.051 257.062 424.291 256.93L424.296 256.926L426.601 255.654L426.64 255.633L600.985 161.098H600.986Z" fill="#FF743D" stroke="#AA1300" stroke-width="12"/>
<path d="M600.986 161.098C605.503 158.65 610.132 160.76 612.45 162.489C614.862 164.289 617.901 167.943 617.35 172.693L592.966 383.088L592.967 383.089C592.868 383.946 592.647 384.799 592.292 385.612C590.962 400.49 585.12 413.625 575.141 423.467C564.857 433.61 550.548 439.896 533.247 441.304C507.824 443.373 480.303 434.595 456.339 419.246C432.336 403.872 411.373 381.575 399.233 355.832C389.191 334.536 386.589 313.816 391.03 296.279C395.443 278.852 406.736 264.977 423.589 257.362C423.816 257.207 424.051 257.063 424.291 256.93L424.297 256.926L426.601 255.654L426.64 255.633L600.985 161.098H600.986Z" fill="#FF5B3E" stroke="#AA1300" stroke-width="12"/>
<path d="M525.695 301.734C540.102 313.545 549.815 328.618 553.713 343.631C557.609 358.638 555.747 373.976 546.311 385.486C536.875 396.995 522.201 401.83 506.721 400.952C491.235 400.074 474.549 393.505 460.143 381.695C445.736 369.884 436.024 354.811 432.126 339.799C428.229 324.791 430.091 309.454 439.527 297.944C448.963 286.434 463.637 281.6 479.118 282.478C494.603 283.356 511.288 289.923 525.695 301.734Z" stroke="#C6351C" stroke-width="10"/>
<path d="M529.889 295.734C543.797 307.136 553.18 321.692 556.946 336.198C560.711 350.699 558.916 365.541 549.779 376.688C540.641 387.834 526.439 392.505 511.481 391.657C496.518 390.808 480.405 384.463 466.496 373.061C452.588 361.659 443.206 347.103 439.439 332.597C435.674 318.096 437.469 303.253 446.607 292.107C455.745 280.961 469.947 276.29 484.905 277.138C499.868 277.987 515.981 284.332 529.889 295.734Z" stroke="white" stroke-width="10"/>
</svg>
